<svg width="20" height="20" viewBox="0 0 20 20" fill="none" xmlns="http://www.w3.org/2000/svg">
<g clip-path="url(#clip0_114496_45)">
<path fill-rule="evenodd" clip-rule="evenodd" d="M10 20C4.47717 20 0 15.5228 0 10C0 4.47717 4.47717 4.76837e-07 10 4.76837e-07C15.5228 4.76837e-07 20 4.47717 20 10C20 15.5228 15.5228 20 10 20ZM8.28242 12.9331V15.1993H15.0915V12.9331H8.28242ZM6.17612 12.7838C5.5085 12.7985 5 13.276 5 14.0512C5 14.8265 5.5085 15.3333 6.17612 15.3333C6.82992 15.3333 7.35304 14.8415 7.35304 14.0807V14.0662C7.35304 13.276 6.82992 12.7838 6.17612 12.7838ZM11.1874 4.76025C9.09596 4.76025 8.12254 5.87825 8.12254 7.36954C8.12254 8.57275 8.78342 9.11142 9.24704 9.41221H8.28262V11.6787C8.92154 11.6488 15.0917 11.6787 15.0917 11.6787V9.41221H11.2889C11.0854 9.41221 10.8824 9.3975 10.7367 9.33758C10.3302 9.17379 9.90925 8.80087 9.90925 8.17479C9.90925 7.35442 10.5336 7.02646 11.4486 7.02646H15.0915V4.76033L11.1874 4.76025Z" fill="black"/>
</g>
<defs>
<clipPath id="clip0_114496_45">
<rect width="20" height="20" fill="white" transform="matrix(0 -1 1 0 0 20)"/>
</clipPath>
</defs>
</svg>
